# xmcd
#
# Track frame offsets:
#	150
#	5150
#	21044
#	34408
#	57358
#	73279
#	88506
#	102967
#	120571
#	138974
#	157362
#	175315
#	192190
#	211669
#	228793
#
# Disc length: 3243 seconds
#
# Revision: 0
# Processed by: cddbd v1.5.2PL0 Copyright (c) Steve Scherf et al.
# Submitted via: EasyCDDAExtractor 9.0.0.1
#
DISCID=cf0ca90f
DTITLE=Udo Jürgens
DYEAR=1900
DGENRE=
TTITLE0=Fanfare 2008
TTITLE1=Einfach ich
TTITLE2=Tanz auf dem Vulkan
TTITLE3=Warum denken traurig macht
TTITLE4=Nur die Sieger steh´n im Lich
TTITLE5=Nur ein Liebeslied
TTITLE6=Völlig vernetzt
TTITLE7=Stärker als wir
TTITLE8=Letzte Ausfahrt Richtung Liebe
TTITLE9=Die ünerfüllten Träume
TTITLE10=Mit dir
TTITLE11=Liebe will alles
TTITLE12=Wo finde ich dich 
TTITLE13=Fehlbilanz
TTITLE14=Einach ich (instrumental) 
EXTD=
EXTT0=
EXTT1=
EXTT2=
EXTT3=
EXTT4=
EXTT5=
EXTT6=
EXTT7=
EXTT8=
EXTT9=
EXTT10=
EXTT11=
EXTT12=
EXTT13=
EXTT14=
PLAYORDER=
